<svg fill="#000000" width="50px" height="50px" viewBox="-6.5 0 32 32" version="1.1" xmlns="http://www.w3.org/2000/svg">
<title>bell</title>
<path d="M19.28 19.88c-0.040-0.36-0.32-0.68-0.72-0.72-1.8-0.28-2.36-2.080-3.080-5.080-0.72-3.080-1.6-6.88-5.84-6.88-4.2 0-5.12 3.8-5.84 6.88-0.72 3-1.24 4.8-3.080 5.080-0.36 0.040-0.64 0.32-0.68 0.72-0.040 0.36 0.16 0.72 0.52 0.88 0.12 0.040 2.52 1 5.88 1.4 0.28 1.52 1.64 2.64 3.2 2.64s2.92-1.12 3.2-2.64c3.36-0.44 5.76-1.4 5.88-1.44 0.4-0.12 0.6-0.48 0.56-0.84zM9.64 23.16c-0.6 0-1.080-0.32-1.36-0.8 0.44 0.040 0.88 0.040 1.36 0.040s0.92 0 1.36-0.040c-0.24 0.48-0.76 0.8-1.36 0.8zM9.64 20.72c-2.6 0-4.96-0.48-6.52-0.92 1.36-1.24 1.88-3.4 2.32-5.36 0.8-3.48 1.52-5.6 4.2-5.6s3.4 2.12 4.2 5.6c0.48 1.96 0.96 4.12 2.32 5.36-1.52 0.44-3.88 0.92-6.52 0.92z"></path>
</svg>